<?xml version="1.0" encoding="UTF-8" standalone="no"?>
<!DOCTYPE svg PUBLIC "-//W3C//DTD SVG 1.1//EN"
 "http://www.w3.org/Graphics/SVG/1.1/DTD/svg11.dtd">
<!-- Generated by graphviz version 3.0.0 (20220226.1711)
 -->
<!-- Title: R Pages: 1 -->
<svg width="312pt" height="98pt"
 viewBox="0.00 0.00 312.00 98.00" xmlns="http://www.w3.org/2000/svg" xmlns:xlink="http://www.w3.org/1999/xlink">
<g id="graph0" class="graph" transform="scale(1 1) rotate(0) translate(4 94)">
<title>R</title>
<polygon fill="white" stroke="transparent" points="-4,4 -4,-94 308,-94 308,4 -4,4"/>
<!-- browser -->
<g id="node1" class="node">
<title>browser</title>
<path fill="none" stroke="black" d="M50,-63C50,-63 12,-63 12,-63 6,-63 0,-57 0,-51 0,-51 0,-39 0,-39 0,-33 6,-27 12,-27 12,-27 50,-27 50,-27 56,-27 62,-33 62,-39 62,-39 62,-51 62,-51 62,-57 56,-63 50,-63"/>
<text text-anchor="middle" x="31" y="-41.3" font-family="Times,serif" font-size="14.00">Browser</text>
</g>
<!-- balancer -->
<g id="node2" class="node">
<title>balancer</title>
<path fill="none" stroke="black" d="M182,-63C182,-63 110,-63 110,-63 104,-63 98,-57 98,-51 98,-51 98,-39 98,-39 98,-33 104,-27 110,-27 110,-27 182,-27 182,-27 188,-27 194,-33 194,-39 194,-39 194,-51 194,-51 194,-57 188,-63 182,-63"/>
<text text-anchor="middle" x="146" y="-41.3" font-family="Times,serif" font-size="14.00">Load Balancer</text>
</g>
<!-- browser&#45;&gt;balancer -->
<g id="edge1" class="edge">
<title>browser&#45;&gt;balancer</title>
<path fill="none" stroke="black" d="M62.28,-45C70.08,-45 78.74,-45 87.43,-45"/>
<polygon fill="black" stroke="black" points="87.6,-48.5 97.6,-45 87.6,-41.5 87.6,-48.5"/>
</g>
<!-- node1 -->
<g id="node3" class="node">
<title>node1</title>
<path fill="none" stroke="black" d="M292,-90C292,-90 242,-90 242,-90 236,-90 230,-84 230,-78 230,-78 230,-66 230,-66 230,-60 236,-54 242,-54 242,-54 292,-54 292,-54 298,-54 304,-60 304,-66 304,-66 304,-78 304,-78 304,-84 298,-90 292,-90"/>
<text text-anchor="middle" x="267" y="-68.3" font-family="Times,serif" font-size="14.00">Backend 1</text>
</g>
<!-- balancer&#45;&gt;node1 -->
<g id="edge2" class="edge">
<title>balancer&#45;&gt;node1</title>
<path fill="none" stroke="black" d="M194.03,-55.67C202.62,-57.62 211.58,-59.65 220.14,-61.59"/>
<polygon fill="black" stroke="black" points="219.43,-65.02 229.95,-63.82 220.98,-58.2 219.43,-65.02"/>
</g>
<!-- node2 -->
<g id="node4" class="node">
<title>node2</title>
<path fill="none" stroke="black" d="M292,-36C292,-36 242,-36 242,-36 236,-36 230,-30 230,-24 230,-24 230,-12 230,-12 230,-6 236,0 242,0 242,0 292,0 292,0 298,0 304,-6 304,-12 304,-12 304,-24 304,-24 304,-30 298,-36 292,-36"/>
<text text-anchor="middle" x="267" y="-14.3" font-family="Times,serif" font-size="14.00">Backend 2</text>
</g>
<!-- balancer&#45;&gt;node2 -->
<g id="edge3" class="edge">
<title>balancer&#45;&gt;node2</title>
<path fill="none" stroke="black" d="M194.03,-34.33C202.62,-32.38 211.58,-30.35 220.14,-28.41"/>
<polygon fill="black" stroke="black" points="220.98,-31.8 229.95,-26.18 219.43,-24.98 220.98,-31.8"/>
</g>
</g>
</svg>
